<?xml version="1.0" standalone="no"?>
<!DOCTYPE svg PUBLIC "-//W3C//DTD SVG 20010904//EN"
 "http://www.w3.org/TR/2001/REC-SVG-20010904/DTD/svg10.dtd">
<svg version="1.0" xmlns="http://www.w3.org/2000/svg"
 width="1800.000000pt" height="2187.000000pt" viewBox="0 0 1800.000000 2187.000000"
 preserveAspectRatio="xMidYMid meet">
<g transform="translate(0.000000,2187.000000) scale(0.100000,-0.100000)"
fill="#000000" stroke="none">
<path d="M4025 21860 c4 -6 -10 -17 -31 -26 -58 -24 -126 -101 -147 -166 -16
-52 -17 -385 -17 -6088 0 -5573 1 -6038 16 -6092 21 -73 85 -149 151 -178 45
-20 61 -20 3863 -20 3764 0 3818 0 3862 20 55 24 111 79 140 139 l23 46 3
6045 c2 4777 0 6057 -9 6100 -21 90 -82 168 -151 192 -16 6 -28 16 -28 24 0
12 -552 14 -3841 14 -2610 0 -3838 -3 -3834 -10z m5380 -444 c100 -42 100
-210 0 -252 -29 -12 -253 -14 -1547 -14 -1421 0 -1515 1 -1548 18 -94 47 -96
192 -2 241 36 20 64 20 1550 21 1295 0 1518 -2 1547 -14z m1923 -5795 c2
-4021 0 -5036 -10 -5043 -20 -12 -6885 -10 -6909 2 -19 11 -19 78 -19 5033 0
3897 3 5026 12 5035 9 9 788 11 3468 10 l3455 -3 3 -5034z m-3393 -5367 c47
-8 84 -27 142 -72 163 -127 175 -355 28 -505 -55 -55 -87 -73 -178 -97 -64
-17 -73 -17 -130 -3 -126 32 -199 88 -252 194 -23 44 -27 65 -27 148 -1 104 4
120 70 212 55 77 201 146 282 133 14 -2 43 -6 65 -10z"/>
<path d="M7851 20074 c-66 -18 -111 -44 -147 -87 -104 -124 -76 -329 56 -412
84 -52 17 -50 1305 -55 l1200 -5 5 -1770 5 -1770 21 -40 c43 -79 102 -124 191
-145 125 -29 258 39 312 160 20 45 21 55 21 1980 0 1901 -1 1936 -20 1978 -44
97 -96 141 -197 167 -85 22 -2670 21 -2752 -1z"/>
<path d="M16555 10250 c-108 -7 -186 -19 -295 -45 -135 -33 -265 -71 -322 -94
-12 -6 -63 -24 -113 -41 -161 -56 -197 -72 -420 -185 -249 -126 -378 -201
-421 -242 -16 -15 -101 -111 -189 -213 -88 -101 -214 -245 -280 -320 -66 -74
-163 -184 -215 -245 -52 -60 -98 -112 -101 -115 -4 -3 -42 -46 -85 -96 -44
-50 -135 -155 -204 -234 -69 -78 -142 -163 -163 -188 -22 -26 -60 -69 -86 -97
-25 -27 -89 -99 -140 -160 -52 -60 -99 -114 -105 -120 -7 -5 -169 -190 -361
-410 -192 -220 -352 -402 -355 -405 -3 -3 -51 -57 -105 -120 -55 -63 -102
-117 -105 -120 -3 -3 -51 -57 -105 -120 -55 -63 -116 -133 -136 -155 -20 -22
-50 -56 -65 -75 -16 -19 -50 -57 -75 -85 -26 -27 -78 -86 -115 -130 -38 -44
-85 -98 -105 -120 -20 -22 -70 -79 -110 -126 -41 -47 -121 -139 -179 -205 -58
-65 -117 -132 -131 -149 -126 -144 -184 -211 -189 -215 -3 -3 -37 -41 -75 -85
-37 -44 -96 -111 -129 -148 l-61 -68 -1465 4 c-1328 3 -1474 4 -1565 20 -331
57 -543 146 -712 301 -138 127 -208 265 -247 491 -19 108 -21 216 -4 233 9 9
321 12 1342 12 821 0 1373 4 1441 10 240 22 315 32 445 56 261 49 414 102 658
226 206 105 329 193 477 342 141 141 260 305 344 473 69 138 149 364 171 483
4 25 13 70 19 100 39 200 40 410 2 497 -28 64 -96 126 -162 147 -43 14 -459
16 -4181 16 -3324 0 -4141 -3 -4176 -13 -31 -9 -99 -60 -249 -187 -114 -96
-266 -224 -338 -285 -142 -119 -379 -320 -436 -369 -20 -17 -101 -85 -179
-151 -79 -66 -167 -140 -195 -165 -28 -25 -116 -99 -195 -165 -79 -66 -223
-187 -320 -270 -96 -82 -259 -220 -360 -305 -101 -85 -249 -210 -329 -278 -80
-68 -168 -142 -196 -165 -231 -194 -414 -354 -436 -380 -60 -74 -77 -201 -40
-284 24 -52 85 -111 145 -142 41 -20 59 -22 129 -19 74 3 87 6 132 38 28 19
64 46 80 61 34 30 288 245 540 458 94 79 195 165 225 191 70 60 287 244 455
385 115 96 203 171 471 400 39 33 182 155 319 270 235 199 450 381 505 428 14
12 68 57 120 101 127 106 207 174 250 213 19 17 47 41 62 52 l26 21 3884 -2
3883 -3 3 -30 c7 -56 -51 -233 -123 -376 -183 -368 -454 -584 -904 -720 -110
-33 -246 -62 -376 -80 -67 -9 -498 -14 -1670 -18 l-1580 -6 -58 -29 c-124 -63
-164 -158 -188 -450 -19 -232 7 -469 75 -677 55 -170 183 -373 324 -516 141
-144 390 -294 598 -363 55 -18 114 -39 132 -46 18 -8 42 -14 52 -14 11 0 46
-6 78 -14 245 -62 387 -66 2025 -66 1596 0 1493 -4 1575 66 38 32 141 146 311
343 40 47 100 115 131 151 32 36 127 144 211 240 84 96 167 191 185 210 17 19
143 163 280 320 277 317 448 512 534 610 52 59 327 373 402 460 17 19 139 159
272 310 132 151 253 289 267 305 14 17 48 55 75 85 27 31 74 84 104 120 30 35
75 87 100 115 25 27 109 122 185 210 77 88 154 176 171 195 39 44 171 195 294
336 52 60 100 114 106 119 6 6 53 60 105 120 51 61 112 130 135 155 23 25 68
77 101 115 47 55 80 82 149 121 116 66 340 175 429 209 85 33 208 82 253 101
18 8 40 14 48 14 9 0 37 7 63 14 158 50 239 66 410 82 102 9 165 11 185 5 17
-5 52 -12 77 -16 108 -14 229 -79 292 -157 37 -46 77 -119 77 -141 0 -8 -26
-45 -58 -83 -31 -38 -113 -139 -182 -224 -68 -85 -154 -191 -190 -236 -36 -44
-101 -125 -146 -180 -44 -54 -136 -169 -205 -254 -150 -185 -212 -262 -287
-354 -32 -38 -77 -94 -102 -126 -25 -31 -99 -124 -165 -205 -66 -81 -133 -164
-150 -185 -37 -47 -158 -195 -260 -320 -42 -52 -95 -117 -117 -145 -22 -27
-49 -61 -61 -75 -12 -14 -59 -72 -105 -130 -46 -58 -99 -123 -117 -145 -56
-67 -275 -338 -303 -375 -15 -19 -68 -84 -117 -145 -50 -60 -158 -193 -240
-295 -82 -102 -177 -218 -210 -259 -109 -134 -134 -165 -195 -242 -32 -42 -65
-83 -72 -91 -16 -17 -65 -77 -199 -242 -57 -72 -144 -180 -194 -241 -49 -61
-135 -167 -190 -235 -55 -69 -102 -127 -105 -130 -6 -5 -190 -232 -384 -475
-66 -82 -123 -152 -126 -155 -6 -5 -189 -233 -289 -359 -25 -31 -47 -58 -50
-61 -4 -3 -59 -70 -123 -150 -64 -80 -149 -185 -190 -235 l-74 -90 -3484 -5
c-3403 -5 -3486 -5 -3535 -24 -53 -20 -53 -20 -589 -566 -512 -523 -1302
-1326 -1506 -1533 -124 -126 -239 -249 -256 -275 -99 -149 -35 -354 130 -417
57 -22 154 -16 222 14 47 21 59 33 488 471 137 140 470 479 740 754 270 274
493 502 496 507 3 4 117 121 253 258 l248 251 3470 0 c2609 0 3482 3 3517 12
85 21 122 53 257 218 95 117 231 286 339 421 55 68 116 144 135 168 20 24 50
60 66 81 57 71 392 485 560 690 55 68 111 137 124 154 70 89 177 222 182 226
3 3 78 95 167 205 88 110 195 243 237 295 43 52 110 136 150 185 40 50 117
144 170 210 182 225 410 507 503 623 52 65 140 174 198 243 57 69 134 165 171
212 38 47 120 150 184 229 64 79 178 220 254 313 75 94 163 201 194 239 31 38
76 94 101 126 57 73 212 263 220 270 3 3 30 36 60 75 30 38 62 79 72 90 9 11
56 70 105 130 49 61 98 121 110 135 11 14 51 63 89 110 97 122 482 597 522
645 42 49 302 372 346 428 105 134 119 211 65 364 -125 358 -332 580 -659 707
-25 10 -60 24 -78 32 -18 8 -42 14 -53 14 -12 0 -44 6 -72 14 -64 18 -275 26
-422 16z"/>
</g>
</svg>
