<?xml version="1.0" standalone="no"?>
<!DOCTYPE svg PUBLIC "-//W3C//DTD SVG 20010904//EN"
 "http://www.w3.org/TR/2001/REC-SVG-20010904/DTD/svg10.dtd">
<svg version="1.0" xmlns="http://www.w3.org/2000/svg"
 width="1170.000000pt" height="2250.000000pt" viewBox="0 0 1170.000000 2250.000000"
 preserveAspectRatio="xMidYMid meet">
<g transform="translate(0.000000,2250.000000) scale(0.100000,-0.100000)"
fill="#000000" stroke="none">
<path d="M1686 22168 c-129 -14 -358 -66 -411 -92 -16 -8 -72 -33 -124 -55
-121 -53 -219 -115 -346 -221 -76 -63 -207 -218 -254 -300 -123 -215 -184
-410 -216 -685 -13 -115 -15 -1255 -15 -9621 l0 -9491 20 -134 c23 -148 39
-216 70 -299 12 -30 27 -71 35 -91 27 -73 130 -258 159 -284 6 -5 36 -42 68
-80 181 -224 469 -399 778 -473 47 -11 123 -28 170 -39 82 -17 236 -18 4260
-18 3955 0 4179 1 4260 18 143 30 327 82 344 98 6 5 16 9 24 9 23 0 182 84
257 135 141 96 238 190 342 330 114 152 218 382 262 580 43 190 41 -234 41
9760 -1 10012 1 9596 -44 9815 -26 128 -61 226 -140 390 -64 132 -229 326
-372 438 -41 31 -239 152 -250 152 -3 0 -20 6 -37 14 -188 81 -336 119 -547
141 -115 12 -746 14 -4195 13 -2352 0 -4093 -4 -4139 -10z m7334 -331 l1035
-4 100 -26 c240 -61 426 -150 542 -257 66 -60 189 -217 225 -285 39 -75 87
-209 122 -340 l21 -80 1 -9495 c1 -5484 -2 -9544 -8 -9610 -27 -352 -130 -595
-334 -790 -106 -101 -202 -167 -315 -216 -147 -64 -161 -68 -299 -97 l-105
-21 -4110 -1 c-3904 0 -4115 1 -4215 18 -169 29 -257 56 -392 122 -124 61
-222 132 -314 227 -101 105 -124 136 -179 246 -68 135 -104 271 -125 467 -16
158 -8 19080 8 19179 6 37 17 85 23 105 54 171 107 289 169 380 62 90 182 207
288 279 135 92 181 112 417 174 l80 21 2495 6 c1372 3 2797 5 3165 4 369 -2
1136 -5 1705 -6z"/>
<path d="M4325 21625 c-70 -19 -124 -40 -137 -53 -7 -7 -17 -12 -22 -12 -20 0
-83 -65 -129 -132 -109 -161 -83 -391 60 -517 64 -57 62 -55 119 -80 117 -52
58 -51 1664 -51 1646 0 1549 -4 1671 61 107 57 182 156 215 282 32 126 -16
278 -124 385 -32 31 -71 63 -87 71 -71 32 -93 40 -137 50 -74 17 -3027 13
-3093 -4z"/>
<path d="M5830 17088 c-19 -12 -42 -27 -51 -33 -77 -49 -340 -205 -346 -205
-3 0 -14 -6 -22 -14 -48 -41 -787 -407 -971 -480 -53 -21 -61 -25 -160 -67
-41 -17 -86 -35 -100 -39 -14 -5 -63 -23 -110 -40 -47 -18 -103 -38 -125 -45
-22 -8 -65 -23 -95 -35 -66 -26 -322 -110 -405 -134 -33 -10 -80 -24 -104 -32
-25 -8 -51 -14 -59 -14 -8 0 -28 -6 -45 -14 -18 -8 -43 -17 -57 -20 -14 -4
-104 -27 -200 -52 -96 -26 -202 -52 -235 -59 -33 -7 -103 -23 -155 -35 -52
-11 -115 -25 -140 -30 -25 -5 -88 -19 -140 -30 -111 -25 -134 -29 -340 -64
-85 -14 -191 -33 -235 -41 -44 -8 -98 -15 -120 -15 -50 0 -106 -27 -122 -60
-10 -20 -12 -175 -7 -730 3 -388 9 -766 15 -840 21 -296 30 -392 49 -550 27
-225 38 -306 50 -365 5 -27 16 -95 25 -150 20 -133 44 -266 60 -340 8 -33 21
-94 30 -135 35 -169 50 -233 92 -400 24 -96 58 -220 75 -275 126 -408 136
-436 253 -735 114 -291 291 -672 405 -875 12 -22 43 -78 69 -125 25 -47 51
-93 56 -102 6 -9 23 -41 39 -70 15 -29 39 -67 52 -85 13 -17 24 -34 24 -37 0
-2 17 -31 38 -63 21 -32 61 -93 88 -136 27 -43 83 -124 124 -181 168 -232 198
-272 223 -301 14 -16 56 -68 93 -115 205 -257 667 -733 879 -905 27 -22 68
-56 90 -75 93 -79 115 -97 240 -190 199 -148 312 -226 489 -337 165 -104 193
-120 341 -198 72 -38 157 -83 190 -101 159 -87 272 -138 305 -137 44 1 197 74
495 237 250 137 760 477 928 618 23 20 83 68 132 108 272 218 603 545 897 890
105 123 338 432 423 560 38 58 75 111 82 118 7 8 18 23 25 35 6 12 31 52 54
89 24 37 44 69 44 72 0 3 32 58 71 123 39 65 96 165 127 223 30 58 64 121 75
140 42 73 105 198 144 285 23 50 53 117 68 150 15 33 33 74 40 90 17 38 112
276 135 335 9 25 26 68 37 95 55 133 100 260 144 405 17 58 37 123 44 145 7
22 21 69 30 105 9 36 23 85 30 110 21 73 104 419 125 520 57 275 87 432 96
510 4 33 19 139 44 310 15 110 39 363 50 540 6 85 14 213 20 284 5 72 10 433
10 803 0 633 -1 673 -18 682 -9 5 -47 14 -82 21 -36 6 -90 16 -120 22 -30 5
-77 14 -105 18 -205 30 -337 55 -570 104 -38 8 -104 22 -145 31 -125 27 -316
71 -390 90 -133 35 -259 70 -355 99 -27 9 -81 25 -120 36 -38 12 -83 25 -100
30 -16 5 -52 16 -80 24 -52 15 -95 30 -155 52 -19 7 -100 36 -180 64 -197 69
-485 183 -598 236 -51 24 -95 44 -97 44 -12 0 -411 196 -535 263 -30 16 -102
54 -160 85 -58 30 -116 63 -130 72 -14 10 -50 29 -80 44 -59 29 -102 55 -252
153 -54 35 -101 63 -105 63 -5 0 -24 -10 -43 -22z m185 -523 c69 -41 128 -75
131 -75 2 0 23 -12 47 -27 75 -47 635 -333 653 -333 2 0 41 -17 86 -39 196
-91 217 -101 223 -101 5 0 56 -21 120 -50 63 -29 322 -127 370 -140 17 -5 73
-25 125 -45 114 -43 171 -62 310 -105 58 -18 116 -36 130 -41 23 -8 199 -58
335 -95 33 -9 80 -22 105 -29 25 -7 79 -21 120 -30 41 -9 102 -22 135 -30 33
-7 94 -21 135 -30 41 -9 93 -20 115 -26 81 -18 261 -54 480 -93 44 -8 107 -18
140 -22 105 -12 95 44 90 -517 -5 -467 -24 -929 -45 -1082 -5 -38 -14 -119
-20 -180 -6 -60 -15 -137 -20 -170 -5 -33 -16 -112 -25 -175 -28 -203 -63
-406 -90 -525 -8 -33 -16 -71 -18 -85 -10 -51 -36 -159 -72 -295 -21 -77 -41
-156 -44 -175 -4 -19 -13 -51 -19 -70 -6 -19 -32 -102 -58 -185 -89 -286 -106
-340 -136 -415 -17 -41 -36 -91 -43 -110 -18 -47 -200 -479 -237 -560 -30 -66
-139 -284 -165 -330 -8 -14 -29 -52 -47 -85 -83 -155 -114 -209 -189 -335
-170 -283 -525 -772 -694 -956 -21 -22 -93 -101 -160 -175 -171 -189 -436
-441 -612 -583 -179 -143 -307 -241 -389 -298 -269 -187 -453 -303 -667 -418
-149 -80 -190 -103 -211 -117 -23 -15 -32 -11 -279 123 -107 59 -106 58 -205
120 -36 23 -92 56 -124 74 -33 18 -88 52 -123 76 -217 151 -226 157 -358 254
-48 36 -118 90 -154 120 -36 30 -88 73 -116 95 -213 170 -559 509 -740 726
-12 13 -50 58 -85 99 -104 121 -212 259 -286 365 -152 219 -221 321 -250 368
-16 27 -36 59 -44 72 -12 19 -57 94 -127 210 -7 11 -16 27 -20 35 -4 8 -21 40
-39 70 -75 130 -99 174 -184 345 -76 156 -296 651 -320 725 -5 14 -39 111 -75
215 -37 105 -69 199 -72 210 -3 11 -18 63 -33 115 -15 52 -35 124 -45 160 -9
36 -23 85 -30 110 -16 55 -52 204 -120 495 -7 33 -21 107 -30 165 -9 58 -23
139 -30 180 -23 126 -44 259 -59 380 -71 550 -78 676 -80 1345 l-1 569 50 11
c28 7 86 18 130 24 229 35 792 153 1020 215 28 7 79 21 115 31 127 34 166 45
270 75 179 52 304 91 338 106 18 8 39 14 47 14 8 0 31 7 52 16 59 26 70 30
198 73 138 46 205 71 255 94 29 14 97 42 255 106 11 5 40 18 65 29 25 11 77
35 115 52 127 58 188 87 335 158 189 92 478 246 530 282 14 9 45 27 70 39 25
12 63 35 85 51 22 16 50 29 61 29 12 1 79 -33 149 -74z"/>
<path d="M5850 16185 c-14 -8 -32 -17 -40 -21 -8 -4 -35 -20 -60 -35 -114 -69
-869 -449 -893 -449 -5 0 -102 -42 -172 -75 -34 -15 -286 -115 -355 -140 -25
-9 -76 -27 -115 -40 -65 -22 -219 -77 -310 -111 -110 -40 -492 -154 -685 -204
-69 -18 -145 -38 -169 -46 -25 -8 -56 -14 -69 -14 -13 0 -45 -7 -71 -15 -52
-16 -288 -66 -431 -91 -182 -31 -199 -35 -210 -49 -9 -11 -9 -125 -1 -482 7
-257 16 -517 21 -578 27 -314 100 -835 144 -1030 8 -33 21 -98 31 -145 9 -47
23 -112 30 -145 33 -142 57 -242 65 -270 5 -16 18 -66 30 -110 77 -290 216
-692 309 -900 10 -22 35 -83 56 -135 40 -103 232 -497 289 -595 20 -33 39 -67
42 -75 90 -195 482 -779 695 -1035 203 -243 176 -213 354 -396 188 -193 281
-279 480 -446 78 -65 72 -61 246 -190 284 -212 421 -301 678 -440 139 -75 163
-83 190 -60 9 8 57 35 106 61 77 41 184 105 283 168 15 10 34 21 42 25 8 4 42
25 75 48 550 377 889 689 1344 1235 49 60 236 314 284 387 21 32 60 90 87 128
62 87 168 258 269 434 90 157 96 168 210 396 60 121 148 312 195 425 101 239
99 234 115 280 7 19 32 94 57 165 78 225 169 536 219 755 9 41 23 95 30 120 7
25 20 79 29 120 9 41 22 93 28 115 5 22 14 64 19 95 13 87 28 178 43 270 49
282 84 638 106 1045 11 215 16 746 8 761 -4 6 -38 16 -75 23 -37 6 -117 20
-178 31 -127 22 -315 62 -430 90 -226 55 -292 72 -440 115 -114 33 -262 78
-287 87 -14 5 -41 14 -60 18 -18 5 -98 32 -178 60 -80 28 -197 69 -260 90
-134 46 -178 62 -320 120 -58 23 -118 48 -135 54 -32 13 -52 22 -153 68 -34
15 -64 28 -67 28 -2 0 -62 27 -132 60 -70 34 -150 72 -178 85 -180 85 -360
178 -474 244 -25 15 -53 30 -61 34 -8 4 -28 16 -45 26 -28 18 -125 71 -128 71
-1 0 -13 -7 -27 -15z m2347 -2260 c80 -38 117 -68 156 -128 31 -47 67 -155 67
-201 0 -41 -36 -164 -58 -201 -14 -22 -86 -103 -161 -181 -75 -77 -158 -166
-186 -197 -27 -31 -101 -108 -163 -171 -62 -63 -125 -130 -140 -149 -29 -36
-341 -372 -552 -592 -69 -71 -172 -182 -230 -245 -103 -112 -170 -184 -340
-365 -88 -93 -181 -194 -260 -281 -24 -27 -110 -119 -189 -204 -80 -85 -184
-198 -232 -250 -165 -181 -172 -186 -236 -213 -175 -73 -315 -33 -497 143 -54
52 -104 100 -110 105 -6 6 -52 48 -101 95 -105 99 -327 306 -435 405 -41 38
-91 85 -111 105 -19 19 -55 53 -80 74 -61 54 -237 217 -319 296 -38 36 -82 92
-100 125 -31 56 -33 67 -34 160 -1 116 16 173 73 246 80 103 170 144 311 143
134 0 164 -18 385 -223 22 -21 108 -100 190 -176 83 -76 209 -193 280 -260 72
-68 148 -138 170 -156 22 -19 69 -62 106 -96 36 -35 70 -63 76 -63 6 0 42 32
79 72 72 75 280 290 589 608 381 392 543 559 614 636 41 43 131 138 200 209
351 364 457 474 576 601 228 243 289 305 320 321 93 50 246 53 342 8z"/>
</g>
</svg>
