<?xml version="1.0" standalone="no"?>
<!DOCTYPE svg PUBLIC "-//W3C//DTD SVG 20010904//EN"
 "http://www.w3.org/TR/2001/REC-SVG-20010904/DTD/svg10.dtd">
<svg version="1.0" xmlns="http://www.w3.org/2000/svg"
 width="512.000000pt" height="512.000000pt" viewBox="0 0 512.000000 512.000000"
 preserveAspectRatio="xMidYMid meet">
<g transform="translate(0.000000,512.000000) scale(0.066667,-0.066667)"
fill="#000000" stroke="none">
<path d="M5501 7039 c-88 -55 -86 -32 -86 -1092 0 -1063 -2 -1038 89 -1091 60
-36 1101 -40 1170 -4 93 48 91 28 91 1094 0 1063 1 1049 -88 1096 -71 36
-1116 34 -1176 -3z m1128 -123 c22 -40 22 -1897 0 -1937 -19 -36 -1041 -46
-1076 -11 -24 24 -26 1904 -2 1948 14 28 36 29 539 29 503 0 525 -1 539 -29z"/>
<path d="M6056 5099 c-65 -38 -3 -140 64 -104 39 21 39 84 1 104 -35 19 -32
19 -65 0z"/>
<path d="M114 6951 c-36 -36 -36 -3186 0 -3222 21 -21 143 -24 1118 -24 l1094
0 -4 -196 -4 -196 -565 1 c-597 2 -613 0 -613 -67 0 -68 -26 -66 1193 -66
1235 0 1192 -3 1192 75 0 57 -42 61 -571 56 l-509 -4 0 198 0 199 848 0 847 0
0 -675 c0 -979 -49 -920 765 -927 593 -5 590 -5 623 57 l23 45 314 0 314 0 10
-38 c5 -21 22 -44 37 -52 40 -22 1033 -19 1121 3 96 24 201 129 225 225 27
105 25 2291 -1 2327 -17 24 -114 26 -1462 25 l-1444 0 0 1122 c0 853 -4 1126
-18 1140 -31 31 -4502 26 -4533 -6z m4431 -1180 l0 -1077 -186 2 c-103 1 -194
-2 -203 -8 -11 -7 -16 -150 -16 -436 l0 -427 -1961 4 -1960 4 -5 1491 c-3 820
-3 1498 1 1507 4 12 626 17 2168 17 l2162 0 0 -1077z m2915 -2227 l-3 -1031
-1599 -4 -1598 -4 0 1035 0 1035 1601 0 1602 0 -3 -1031z m-5 -1180 c0 -37
-83 -111 -143 -127 -37 -11 -237 -17 -534 -17 l-475 0 -31 53 -31 53 -379 -4
-379 -4 -30 -49 -30 -48 -480 0 c-282 -1 -503 5 -536 14 -51 15 -147 103 -147
136 0 9 581 14 1598 14 1356 0 1597 -3 1597 -21z"/>
<path d="M1383 2922 c-13 -13 -18 -152 -18 -532 l0 -513 -292 -5 -293 -4 -56
-57 -56 -56 -5 -515 -4 -514 34 -52 c75 -111 -35 -104 1636 -104 1622 0 1552
-4 1631 82 l38 40 4 518 c6 695 25 665 -431 665 l-271 0 0 515 c0 380 -5 519
-18 532 -26 26 -1873 26 -1899 0z m1797 -574 l0 -473 -847 0 -848 0 0 473 0
472 848 0 847 0 0 -472z m678 -618 c37 -33 42 -953 6 -1003 -20 -27 -45 -30
-293 -34 l-271 -5 0 151 c0 133 -3 152 -29 165 -40 22 -1837 22 -1877 0 -26
-13 -29 -32 -29 -165 l0 -149 -248 0 c-241 0 -297 9 -326 51 -29 44 -12 953
19 984 43 43 3000 48 3048 5z m-678 -939 l0 -101 -847 0 -848 0 0 101 0 102
847 0 848 0 0 -102z"/>
</g>
</svg>
