<?xml version="1.0" standalone="no"?>
<!DOCTYPE svg PUBLIC "-//W3C//DTD SVG 20010904//EN"
 "http://www.w3.org/TR/2001/REC-SVG-20010904/DTD/svg10.dtd">
<svg version="1.0" xmlns="http://www.w3.org/2000/svg"
 width="348.000000pt" height="363.000000pt" viewBox="0 0 348.000000 363.000000"
 preserveAspectRatio="xMidYMid meet">

<g transform="translate(0.000000,363.000000) scale(0.100000,-0.100000)"
fill="#000000" stroke="none">
<path d="M784 3516 l-34 -34 0 -315 0 -315 26 -31 c32 -38 80 -49 123 -27 59
31 61 44 61 370 0 167 -4 306 -10 320 -12 32 -65 66 -103 66 -20 0 -40 -11
-63 -34z"/>
<path d="M2034 3541 c-12 -5 -31 -22 -43 -37 -20 -26 -21 -35 -21 -340 l0
-312 26 -31 c32 -38 80 -49 123 -27 60 32 62 43 59 386 l-3 310 -26 25 c-27
28 -82 40 -115 26z"/>
<path d="M122 1863 l3 -1288 608 -3 c334 -1 607 -1 607 1 0 2 -13 30 -28 63
-16 32 -34 74 -41 92 l-13 32 -474 0 -474 0 0 840 0 840 1133 2 c622 2 1142 1
1154 -1 21 -3 22 -9 25 -98 l3 -95 70 -23 c39 -12 78 -26 88 -30 16 -7 17 20
17 474 l0 481 -296 0 -296 0 7 -117 c11 -214 11 -210 -22 -251 -104 -130 -308
-27 -265 134 7 24 12 87 12 139 l0 95 -476 0 -476 0 6 -117 c12 -218 12 -210
-10 -239 -38 -51 -71 -69 -129 -69 -60 0 -95 20 -133 76 -19 28 -22 42 -17 79
3 25 8 96 11 158 l6 112 -301 0 -301 0 2 -1287z"/>
<path d="M620 2085 l0 -125 125 0 125 0 0 125 0 125 -125 0 -125 0 0 -125z"/>
<path d="M1100 2085 l0 -125 125 0 125 0 0 125 0 125 -125 0 -125 0 0 -125z"/>
<path d="M1580 2100 l0 -110 54 44 c30 25 87 63 125 86 58 33 71 46 71 65 l0
25 -125 0 -125 0 0 -110z"/>
<path d="M2195 2119 c-201 -29 -416 -140 -561 -291 -122 -126 -197 -257 -250
-433 -26 -83 -28 -103 -28 -260 1 -142 4 -183 22 -246 100 -364 363 -624 735
-727 96 -27 385 -23 490 6 168 46 324 137 448 261 124 124 214 279 261 448 31
108 33 392 4 498 -107 395 -434 689 -830 744 -89 13 -204 12 -291 0z m345
-204 c36 -9 111 -38 166 -65 223 -108 391 -332 434 -577 18 -100 8 -278 -20
-368 -83 -264 -281 -462 -545 -545 -88 -28 -272 -38 -370 -21 -263 46 -504
242 -606 491 -172 424 52 915 486 1065 134 46 312 54 455 20z"/>
<path d="M2260 1706 l0 -54 -37 -7 c-55 -9 -134 -47 -175 -84 -56 -49 -82
-112 -82 -201 0 -163 67 -218 367 -294 194 -50 217 -65 217 -140 0 -44 -38
-90 -88 -107 -20 -7 -70 -12 -109 -12 -116 1 -195 51 -212 134 l-7 34 -97 3
-97 3 0 -43 c2 -138 110 -255 269 -289 l51 -11 0 -64 0 -64 85 0 85 0 0 64 0
65 55 11 c73 15 168 64 201 103 90 106 96 276 14 370 -50 56 -103 79 -296 127
-205 52 -234 68 -234 137 0 64 60 103 157 103 111 0 186 -41 199 -109 l7 -31
99 0 100 0 -7 47 c-16 110 -98 196 -220 234 l-75 24 0 52 0 53 -85 0 -85 0 0
-54z"/>
<path d="M620 1765 l0 -125 125 0 125 0 0 125 0 125 -125 0 -125 0 0 -125z"/>
<path d="M1100 1765 l0 -125 108 0 108 0 17 35 c12 25 17 62 17 125 l0 90
-125 0 -125 0 0 -125z"/>
<path d="M620 1435 l0 -125 125 0 125 0 0 125 0 125 -125 0 -125 0 0 -125z"/>
<path d="M1100 1435 l0 -125 54 0 55 0 11 56 c7 31 22 87 35 125 l24 69 -90 0
-89 0 0 -125z"/>
<path d="M620 1115 l0 -125 125 0 125 0 0 125 0 125 -125 0 -125 0 0 -125z"/>
<path d="M1100 1115 l0 -125 53 0 52 0 -3 125 -3 125 -50 0 -49 0 0 -125z"/>
</g>
</svg>
